<svg width="24" height="24" viewBox="0 0 24 24" fill="none" xmlns="http://www.w3.org/2000/svg">
    <path d="M13.5 6.00002L16 8.50002L8.5 16L6 13.5L13.5 6.00002Z" fill="#314694"/>
    <path d="M17.5 4.50002C18.3284 4.50002 19 5.17159 19 6.00002C19 6.82845 18.3284 7.50002 17.5 7.50002C16.6716 7.50002 16 6.82845 16 6.00002C16 5.17159 16.6716 4.50002 17.5 4.50002Z" fill="#314694"/>
    <path d="M6.5 12C7.32843 12 8 12.6716 8 13.5C8 14.3284 7.32843 15 6.5 15C5.67157 15 5 14.3284 5 13.5C5 12.6716 5.67157 12 6.5 12Z" fill="#314694"/>
    <path d="M14 12L11.5 9.5L4 17L4.5 17.5L5 18L6.5 19.5L7 20L9 18L14 13L14 12Z" fill="#314694"/>
</svg>